<svg xmlns="http://www.w3.org/2000/svg" width="111" height="25"><g fill="#FFF" fill-rule="nonzero"><path d="M21.03 19.8v.4H13.6v-.4c1.82-.06 2.16-1.09 1.54-2.64l-1.35-3.41H6.33l-1.32 3.3c-.67 1.66-.53 2.69 1.71 2.75v.4H.91v-.4c1.8-.09 2.55-.97 3.31-2.87L10.79.62h.39l6.59 16.28c.76 1.86 1.54 2.78 3.25 2.89l.01.01Zm-7.57-6.85-3.39-8.54-3.42 8.54h6.82-.01ZM27.24 18.59c-.51 1.09-1.6 1.86-2.89 1.86-2.08 0-3.2-1.35-3.2-3.87V7.9h-1.66v-.4c1.21-1.12 2.33-2.21 3.53-4.1h.39v3.78h3.62v.72h-3.62v8.8c0 1.63.7 2.49 2.08 2.49.59 0 1.09-.29 1.43-.77l.31.17h.01ZM41.26 19.8v.4h-5.64v-.4c1.23-.17 1.68-.6 1.68-1.52v-6.85c0-2.12-1.07-2.98-2.5-2.98-1.63 0-3.34 1.18-3.34 4.07v5.76c0 .92.45 1.35 1.68 1.52v.4H27.5v-.4c1.23-.17 1.68-.6 1.68-1.52V3.12c0-.92-.36-1.35-1.32-1.43l-.39-.03v-.4l4-1.04v10.09c.7-2.12 2.24-3.44 4.35-3.44 2.27 0 3.76 1.49 3.76 4.36v7.05c0 .92.48 1.35 1.68 1.52Z"/><path d="M44.82 18.28c-.2.92.2 1.35 1.37 1.52l-.08.4h-5.67l.08-.4c1.26-.17 1.82-.6 2.02-1.52l3.14-15.16c.17-.92-.08-1.35-1.01-1.43l-.39-.03.08-.4L48.58.22l-3.76 18.06ZM67 18.59c-.51 1.09-1.6 1.86-2.89 1.86-2.08 0-3.2-1.35-3.2-3.87V7.9h-1.66v-.4c1.21-1.12 2.33-2.21 3.53-4.1h.39v3.78h3.62v.72h-3.62v8.8c0 1.63.7 2.49 2.08 2.49.59 0 1.09-.29 1.43-.77l.31.17H67ZM73.28 19.8v.4h-5.61v-.4c1.21-.17 1.68-.6 1.68-1.52V9.76c0-.92-.39-1.38-1.35-1.46l-.39-.03v-.4l3.98-1v11.41c0 .92.48 1.35 1.68 1.52h.01ZM68.71 1.83c0-.97.76-1.72 1.77-1.72s1.71.75 1.71 1.72-.73 1.72-1.71 1.72-1.77-.75-1.77-1.72ZM86.73 24.6v.4h-6.37v-.4c1.71-.11 2.41-.52 2.41-1.49v-6.22c-.59 2.18-2.08 3.3-4.04 3.3-3.14 0-5.27-2.69-5.27-6.79 0-4.67 2.83-6.96 5.92-6.96 1.29 0 2.78.37 3.82 1.58l1.46-1.58h.39v16.67c0 .92.48 1.32 1.68 1.49Zm-3.96-10.17v-3.15c0-2.35-1.21-4.13-3.25-4.13-2.47 0-3.59 2.55-3.59 5.79 0 3.55 1.49 5.7 3.53 5.7 1.74 0 3.31-1.2 3.31-4.21ZM99.76 19.05v.4l-3.9 1v-3.04l-.06-.49c-.7 2.12-2.24 3.47-4.38 3.47-2.27 0-3.76-1.49-3.76-4.36V9.55c0-.92-.39-1.38-1.32-1.46l-.39-.03v-.4l3.98-1v9.18c0 2.12 1.07 2.98 2.5 2.98 1.63 0 3.34-1.18 3.34-4.07V9.56c0-.92-.36-1.38-1.32-1.46l-.39-.03v-.4l3.98-1v10.92c0 .92.36 1.35 1.32 1.43l.39.03h.01ZM110.91 16.09c-.53 2.69-2.5 4.36-5.27 4.36-3.51 0-5.89-2.75-5.89-6.68 0-4.41 2.64-7.05 6.31-7.05 3.23 0 5.22 2.12 4.8 5.65h-8.75v.26c-.08 3.73 1.66 6.13 4.63 6.13 1.94 0 3.28-1.32 3.84-2.75l.34.09-.01-.01Zm-8.75-4.44h6.34c.31-2.67-.95-4.21-2.83-4.21-1.88 0-3.2 1.72-3.51 4.21ZM58.5 16.09c-.53 2.69-2.5 4.36-5.27 4.36-3.51 0-5.89-2.75-5.89-6.68 0-4.41 2.64-7.05 6.31-7.05 3.23 0 5.22 2.12 4.8 5.65H49.7v.26c-.08 3.73 1.66 6.13 4.63 6.13 1.94 0 3.28-1.32 3.84-2.75l.34.09-.01-.01Zm-8.75-4.44h6.34c.31-2.67-.95-4.21-2.83-4.21-1.88 0-3.2 1.72-3.51 4.21ZM57.46 0h-1.9l-1.91 4.84h.25z"/></g></svg>