<?xml version="1.0" encoding="UTF-8"?>
<svg width="764px" height="171px" viewBox="0 0 764 171" version="1.1" xmlns="http://www.w3.org/2000/svg" xmlns:xlink="http://www.w3.org/1999/xlink">
    <!-- Generator: Sketch 49.2 (51160) - http://www.bohemiancoding.com/sketch -->
    <title>Athlétique_Logos_RGB-49</title>
    <desc>Created with Sketch.</desc>
    <defs></defs>
    <g id="Page-1" stroke="none" stroke-width="1" fill="none" fill-rule="evenodd">
        <g id="Athlétique_Logos_RGB-49" fill="#FFFFFF" fill-rule="nonzero">
            <path d="M139.72,134.75 L139.72,137.47 L88.15,137.47 L88.15,134.75 C100.8,134.36 103.14,127.35 98.85,116.84 L89.51,93.68 L37.74,93.68 L28.59,116.06 C23.92,127.35 24.89,134.35 40.46,134.74 L40.46,137.46 L0.18,137.46 L0.18,134.74 C12.64,134.16 17.89,128.12 23.14,115.28 L68.68,4.55 L71.4,4.55 L117.14,115.09 C122.39,127.74 127.84,133.97 139.72,134.75 Z M87.17,88.23 L63.62,30.23 L39.88,88.23 L87.17,88.23 Z" id="Shape"></path>
            <path d="M182.82,126.55 C179.32,133.95 171.73,139.2 162.77,139.2 C148.37,139.2 140.58,130.05 140.58,112.93 L140.58,53.95 L129.1,53.95 L129.1,51.22 C137.47,43.63 145.25,36.24 153.62,23.39 L156.34,23.39 L156.34,49.08 L181.45,49.08 L181.45,53.95 L156.34,53.95 L156.34,113.7 C156.34,124.79 161.21,130.63 170.74,130.63 C174.83,130.63 178.33,128.68 180.67,125.37 L182.81,126.54 L182.82,126.55 Z" id="Shape"></path>
            <path d="M280.07,134.75 L280.07,137.47 L240.95,137.47 L240.95,134.75 C249.51,133.58 252.63,130.66 252.63,124.43 L252.63,77.92 C252.63,63.52 245.23,57.68 235.31,57.68 C224.02,57.68 212.15,65.66 212.15,85.32 L212.15,124.44 C212.15,130.67 215.26,133.59 223.83,134.76 L223.83,137.48 L184.71,137.48 L184.71,134.76 C193.27,133.59 196.39,130.67 196.39,124.44 L196.39,21.48 C196.39,15.25 193.86,12.33 187.24,11.75 L184.52,11.55 L184.52,8.83 L212.16,1.82 L212.16,70.33 C217.03,55.93 227.73,46.98 242.33,46.98 C258.09,46.98 268.41,57.1 268.41,76.56 L268.41,124.44 C268.41,130.67 271.72,133.59 280.09,134.76 L280.07,134.75 Z" id="Shape"></path>
            <path d="M304.78,124.43 C303.42,130.66 306.14,133.58 314.32,134.75 L313.74,137.47 L274.43,137.47 L275.01,134.75 C283.77,133.58 287.66,130.66 289.02,124.43 L310.82,21.48 C311.99,15.25 310.24,12.33 303.81,11.75 L301.09,11.55 L301.67,8.83 L330.86,1.82 L304.78,124.43 Z" id="Shape"></path>
            <path d="M458.63,126.55 C455.13,133.95 447.54,139.2 438.58,139.2 C424.18,139.2 416.39,130.05 416.39,112.93 L416.39,53.95 L404.91,53.95 L404.91,51.22 C413.28,43.63 421.06,36.24 429.43,23.39 L432.15,23.39 L432.15,49.08 L457.26,49.08 L457.26,53.95 L432.15,53.95 L432.15,113.7 C432.15,124.79 437.02,130.63 446.55,130.63 C450.64,130.63 454.14,128.68 456.48,125.37 L458.62,126.54 L458.63,126.55 Z" id="Shape"></path>
            <path d="M502.23,134.75 L502.23,137.47 L463.31,137.47 L463.31,134.75 C471.68,133.58 474.99,130.66 474.99,124.43 L474.99,66.63 C474.99,60.4 472.26,57.29 465.65,56.7 L462.92,56.5 L462.92,53.78 L490.56,46.97 L490.56,124.43 C490.56,130.66 493.87,133.58 502.24,134.75 L502.23,134.75 Z M470.51,12.72 C470.51,6.1 475.76,1.04 482.77,1.04 C489.78,1.04 494.64,6.1 494.64,12.72 C494.64,19.34 489.58,24.4 482.77,24.4 C475.96,24.4 470.51,19.34 470.51,12.72 Z" id="Shape"></path>
            <path d="M595.51,167.36 L595.51,170.09 L551.33,170.09 L551.33,167.36 C563.2,166.58 568.07,163.86 568.07,157.24 L568.07,115.01 C563.98,129.8 553.67,137.39 540.04,137.39 C518.24,137.39 503.45,119.1 503.45,91.27 C503.45,59.55 523.11,43.98 544.51,43.98 C553.46,43.98 563.78,46.51 570.98,54.68 L581.1,43.98 L583.82,43.98 L583.82,157.25 C583.82,163.48 587.13,166.2 595.5,167.37 L595.51,167.36 Z M568.07,98.27 L568.07,76.86 C568.07,60.9 559.7,48.83 545.49,48.83 C528.36,48.83 520.58,66.15 520.58,88.14 C520.58,112.27 530.89,126.87 545.1,126.87 C557.17,126.87 568.06,118.7 568.06,98.26 L568.07,98.27 Z" id="Shape"></path>
            <path d="M685.89,129.66 L685.89,132.38 L658.84,139.19 L658.84,118.56 L658.45,115.25 C653.58,129.65 642.88,138.8 628.09,138.8 C612.33,138.8 602.01,128.68 602.01,109.22 L602.01,65.24 C602.01,59.01 599.29,55.9 592.86,55.31 L590.14,55.11 L590.14,52.39 L617.78,45.58 L617.78,107.86 C617.78,122.26 625.18,128.1 635.1,128.1 C646.39,128.1 658.26,120.12 658.26,100.46 L658.26,65.23 C658.26,59 655.73,55.89 649.11,55.3 L646.38,55.1 L646.38,52.38 L674.02,45.57 L674.02,119.74 C674.02,125.97 676.55,128.89 683.17,129.47 L685.89,129.67 L685.89,129.66 Z" id="Shape"></path>
            <path d="M763.27,109.61 C759.57,127.9 745.95,139.19 726.68,139.19 C702.35,139.19 685.81,120.51 685.81,93.84 C685.81,63.87 704.1,45.96 729.6,45.96 C751.98,45.96 765.8,60.36 762.88,84.3 L702.16,84.3 L702.16,86.05 C701.58,111.35 713.64,127.7 734.27,127.7 C747.7,127.7 757.04,118.75 760.93,109.02 L763.26,109.6 L763.27,109.61 Z M702.55,79.45 L746.53,79.45 C748.67,61.35 739.91,50.84 726.87,50.84 C713.83,50.84 704.68,62.52 702.54,79.45 L702.55,79.45 Z" id="Shape"></path>
            <g id="Group" transform="translate(322.000000, 0.000000)">
                <path d="M77.67,109.61 C73.97,127.9 60.35,139.19 41.08,139.19 C16.75,139.19 0.21,120.51 0.21,93.84 C0.21,63.87 18.5,45.96 44,45.96 C66.38,45.96 80.2,60.36 77.28,84.3 L16.56,84.3 L16.56,86.05 C15.98,111.35 28.04,127.7 48.67,127.7 C62.1,127.7 71.44,118.75 75.33,109.02 L77.67,109.6 L77.67,109.61 Z M16.95,79.45 L60.93,79.45 C63.07,61.35 54.31,50.84 41.27,50.84 C28.23,50.84 19.08,62.52 16.94,79.45 L16.95,79.45 Z" id="Shape"></path>
                <polygon id="Shape" points="70.47 0.33 57.24 0.33 44.01 33.22 45.76 33.22"></polygon>
            </g>
        </g>
    </g>
</svg>