<svg xmlns="http://www.w3.org/2000/svg" xml:space="preserve" id="Layer_1" x="0" y="0" style="enable-background:new 0 0 108.72 24.45" version="1.1" viewBox="0 0 108.72 24.45"><style>.st2{fill:#fff}</style><path d="M19.89 19.16v.39h-7.35v-.39c1.8-.06 2.14-1.05 1.53-2.55l-1.33-3.3H5.35l-1.3 3.19c-.67 1.61-.53 2.61 1.69 2.66v.39H0v-.39c1.78-.08 2.52-.94 3.27-2.77L9.76.6h.39l6.52 15.76c.75 1.8 1.53 2.69 3.22 2.8zm-7.49-6.63L9.04 4.26l-3.38 8.27h6.74zM26.03 17.99c-.5 1.05-1.58 1.8-2.86 1.8-2.05 0-3.16-1.3-3.16-3.75v-8.4h-1.64v-.38c1.19-1.08 2.3-2.14 3.5-3.97h.39v3.66h3.58v.69h-3.58v8.52c0 1.58.69 2.41 2.05 2.41.58 0 1.08-.28 1.41-.75l.31.17zM39.9 19.16v.39h-5.58v-.39c1.22-.17 1.66-.58 1.66-1.47v-6.63c0-2.05-1.05-2.89-2.47-2.89-1.61 0-3.3 1.14-3.3 3.94v5.58c0 .89.44 1.3 1.66 1.47v.39H26.3v-.39c1.22-.17 1.66-.58 1.66-1.47V3.02c0-.89-.36-1.3-1.3-1.39l-.38-.03v-.39l3.94-1v9.76c.69-2.05 2.22-3.33 4.3-3.33 2.25 0 3.72 1.44 3.72 4.22v6.82c-.01.9.46 1.31 1.66 1.48z" class="st2"/><path d="M43.42 17.69c-.19.89.19 1.3 1.36 1.47l-.08.39h-5.6l.08-.39c1.25-.17 1.8-.58 2-1.47l3.11-14.67c.17-.89-.08-1.3-1-1.39l-.4-.03.08-.39 4.16-1-3.71 17.48zM65.35 17.99c-.5 1.05-1.58 1.8-2.86 1.8-2.05 0-3.16-1.3-3.16-3.75v-8.4h-1.64v-.38c1.19-1.08 2.3-2.14 3.5-3.97h.39v3.66h3.58v.69h-3.58v8.52c0 1.58.69 2.41 2.05 2.41.58 0 1.08-.28 1.41-.75l.31.17zM71.56 19.16v.39h-5.55v-.39c1.19-.17 1.66-.58 1.66-1.47V9.45c0-.89-.39-1.33-1.33-1.41l-.39-.03v-.39l3.94-.97v11.04c.01.89.48 1.3 1.67 1.47zM67.04 1.77c0-.94.75-1.66 1.75-1.66.97 0 1.69.72 1.69 1.66s-.72 1.66-1.69 1.66c-1 0-1.75-.72-1.75-1.66zM84.86 23.81v.39h-6.3v-.39c1.69-.11 2.39-.5 2.39-1.44v-6.02c-.58 2.11-2.05 3.19-3.99 3.19-3.11 0-5.22-2.61-5.22-6.57 0-4.52 2.8-6.74 5.85-6.74 1.28 0 2.75.36 3.77 1.53l1.44-1.53h.39v16.15c0 .87.48 1.26 1.67 1.43zm-3.91-9.85v-3.05c0-2.27-1.19-3.99-3.22-3.99-2.44 0-3.55 2.47-3.55 5.6 0 3.44 1.47 5.52 3.5 5.52 1.71 0 3.27-1.17 3.27-4.08zM97.74 18.44v.39l-3.86.97v-2.94l-.06-.47c-.69 2.05-2.22 3.36-4.33 3.36-2.25 0-3.72-1.44-3.72-4.22V9.25c0-.89-.39-1.33-1.3-1.41l-.39-.03v-.39l3.94-.97v8.88c0 2.05 1.05 2.88 2.47 2.88 1.61 0 3.3-1.14 3.3-3.94V9.25c0-.89-.36-1.33-1.3-1.41l-.39-.03v-.39l3.94-.97v10.57c0 .89.36 1.3 1.3 1.39l.4.03zM108.77 15.58c-.53 2.61-2.47 4.22-5.22 4.22-3.47 0-5.83-2.66-5.83-6.46 0-4.27 2.61-6.82 6.24-6.82 3.19 0 5.16 2.05 4.74 5.46h-8.66v.25c-.08 3.61 1.64 5.94 4.58 5.94 1.91 0 3.25-1.28 3.8-2.66l.35.07zm-8.65-4.3h6.27c.3-2.58-.94-4.08-2.8-4.08-1.89 0-3.17 1.66-3.47 4.08zM56.94 15.58c-.53 2.61-2.47 4.22-5.22 4.22-3.47 0-5.83-2.66-5.83-6.46 0-4.27 2.61-6.82 6.24-6.82 3.19 0 5.16 2.05 4.74 5.46h-8.66v.25c-.08 3.61 1.64 5.94 4.58 5.94 1.91 0 3.25-1.28 3.8-2.66l.35.07zm-8.65-4.3h6.27c.31-2.58-.94-4.08-2.8-4.08-1.89 0-3.17 1.66-3.47 4.08zM55.92 0h-1.89l-1.88 4.69h.25z" class="st2"/></svg>